{"title":"A$AP Rocky ft. Drake, 2 Chainz &amp; Kendrick Lamar - Fucking Pr","uid":8036052,"size":152503469,"categoryP":"video","categoryS":"music_videos","magnet":"?xt=urn:btih:0b4bf5eb008b8d84553856dd28b48c9bf9545f85&amp;dn=A%24AP+Rocky+ft.+Drake%2C+2+Chainz+%26amp%3B+Kendrick+Lamar+-+Fucking+Pr&amp;tr=udp%3A%2F%2Ftracker.openbittorrent.com%3A80&amp;tr=udp%3A%2F%2Fopen.demonii.com%3A1337&amp;tr=udp%3A%2F%2Ftracker.coppersurfer.tk%3A6969&amp;tr=udp%3A%2F%2Fexodus.desync.com%3A6969","seeders":12,"leechers":3,"uploader":"Sbyky","files":-1,"time":1358525994,"description":" &lt;a href=&quot;http://www.shotpix.com/images/67728132606948308990.jpg&quot; rel=&quot;nofollow&quot; target=&quot;_NEW&quot;&gt;http://www.shotpix.com/images/67728132606948308990.jpg&lt;/a&gt;\n\nGeneral\nComplete name                            : A$AP Rocky ft. Drake, 2 Chainz &amp; Kendrick Lamar - Fucking Problems (Explicit) 1080p [Sbyky].mp4\nFormat                                   : MPEG-4\nFormat profile                           : Base Media / Version 2\nCodec ID                                 : mp42\nFile size                                : 145 MiB\nDuration                                 : 3mn 52s\nOverall bit rate mode                    : Variable\nOverall bit rate                         : 5 247 Kbps\nEncoded date                             : UTC 2012-12-03 08:55:53\nTagged date                              : UTC 2012-12-03 08:55:53\ngsst                                     : 0\ngstd                                     : 232663\ngssd                                     : B4A7DAA02HH1358198610481064\ngshh                                     :\n\nVideo\nID                                       : 1\nFormat                                   : AVC\nFormat/Info                              : Advanced Video Codec\nFormat profile                           : &lt;a class=&quot;__cf_email__&quot; href=&quot;/cdn-cgi/l/email-protection&quot; data-cfemail=&quot;135b7a747b535f273d23&quot;&gt;[email&amp;#160;protected]&lt;/a&gt;&lt;script cf-hash='f9e31' type=&quot;text/javascript&quot;&gt;\n/* &lt;![CDATA[ */!function(){try{var t=&quot;currentScript&quot;in document?document.currentScript:function(){for(var t=document.getElementsByTagName(&quot;script&quot;),e=t.length;e--;)if(t[e].getAttribute(&quot;cf-hash&quot;))return t[e]}();if(t&amp;&amp;t.previousSibling){var e,r,n,i,c=t.previousSibling,a=c.getAttribute(&quot;data-cfemail&quot;);if(a){for(e=&quot;&quot;,r=parseInt(a.substr(0,2),16),n=2;a.length-n;n+=2)i=parseInt(a.substr(n,2),16)^r,e+=String.fromCharCode(i);e=document.createTextNode(e),c.parentNode.replaceChild(e,c)}}}catch(u){}}();/* ]]&gt; */&lt;/script&gt;\nFormat settings, CABAC                   : Yes\nFormat settings, ReFrames                : 1 frame\nCodec ID                                 : avc1\nCodec ID/Info                            : Advanced Video Coding\nDuration                                 : 3mn 52s\nBit rate                                 : 5 052 Kbps\nMaximum bit rate                         : 10.5 Mbps\nWidth                                    : 1 920 pixels\nHeight                                   : 1 080 pixels\nDisplay aspect ratio                     : 16:9\nFrame rate mode                          : Constant\nFrame rate                               : 23.976 fps\nColor space                              : YUV\nChroma subsampling                       : 4:2:0\nBit depth                                : 8 bits\nScan type                                : Progressive\nBits/(Pixel*Frame)                       : 0.102\nStream size                              : 140 MiB (96%)\nTagged date                              : UTC 2012-12-03 08:55:53\n\nAudio\nID                                       : 2\nFormat                                   : AAC\nFormat/Info                              : Advanced Audio Codec\nFormat profile                           : LC\nCodec ID                                 : 40\nDuration                                 : 3mn 52s\nBit rate mode                            : Variable\nBit rate                                 : 192 Kbps\nMaximum bit rate                         : 203 Kbps\nChannel(s)                               : 2 channels\nChannel positions                        : Front: L R\nSampling rate                            : 44.1 KHz\nCompression mode                         : Lossy\nStream size                              : 5.32 MiB (4%)\nTitle                                    : IsoMedia File Produced by Google, 5-11-2011\nEncoded date                             : UTC 2012-12-03 08:55:53\nTagged date                              : UTC 2012-12-03 08:55:53\n\nShared By Sbyky &lt;a href=&quot;\nhttp://www.shotpix.com/images/65449402944248708647.gif&quot; rel=&quot;nofollow&quot; target=&quot;_NEW&quot;&gt;\nhttp://www.shotpix.com/images/65449402944248708647.gif&lt;/a&gt;","torrent":{"xt":"urn:btih:0b4bf5eb008b8d84553856dd28b48c9bf9545f85","amp;dn":"A%24AP+Rocky+ft.+Drake%2C+2+Chainz+%26amp%3B+Kendrick+Lamar+-+Fucking+Pr","amp;tr":["udp%3A%2F%2Ftracker.openbittorrent.com%3A80","udp%3A%2F%2Fopen.demonii.com%3A1337","udp%3A%2F%2Ftracker.coppersurfer.tk%3A6969","udp%3A%2F%2Fexodus.desync.com%3A6969"],"infoHash":"0b4bf5eb008b8d84553856dd28b48c9bf9545f85","infoHashBuffer":{"type":"Buffer","data":[11,75,245,235,0,139,141,132,85,56,86,221,40,180,140,155,249,84,95,133]},"announce":[],"urlList":[]}}